<mxfile host="Electron" agent="Mozilla/5.0 (Windows NT 10.0; Win64; x64) AppleWebKit/537.36 (KHTML, like Gecko) draw.io/27.0.9 Chrome/134.0.6998.205 Electron/35.4.0 Safari/537.36" version="27.0.9">
  <diagram name="페이지-1" id="WGSxOdOskkmz9LU9HtEP">
    <mxGraphModel dx="1678" dy="999" grid="1" gridSize="10" guides="1" tooltips="1" connect="1" arrows="1" fold="1" page="1" pageScale="1" pageWidth="827" pageHeight="1169" math="0" shadow="0">
      <root>
        <mxCell id="0" />
        <mxCell id="1" parent="0" />
        <mxCell id="5PLPJtpDU1oJyjAWQgFz-2" value="호텔 서비스 프로그램" style="rounded=0;whiteSpace=wrap;html=1;fontSize=16;fontStyle=1" parent="1" vertex="1">
          <mxGeometry x="517.5" y="40" width="235" height="50" as="geometry" />
        </mxCell>
        <mxCell id="5PLPJtpDU1oJyjAWQgFz-3" value="고객" style="text;html=1;align=center;verticalAlign=middle;whiteSpace=wrap;rounded=0;strokeColor=default;" parent="1" vertex="1">
          <mxGeometry x="80" y="140" width="60" height="30" as="geometry" />
        </mxCell>
        <mxCell id="5PLPJtpDU1oJyjAWQgFz-5" value="직원" style="text;html=1;align=center;verticalAlign=middle;whiteSpace=wrap;rounded=0;strokeColor=#007FFF;" parent="1" vertex="1">
          <mxGeometry x="345" y="140" width="50" height="30" as="geometry" />
        </mxCell>
        <mxCell id="5PLPJtpDU1oJyjAWQgFz-6" value="비회원" style="text;html=1;align=center;verticalAlign=middle;whiteSpace=wrap;rounded=0;strokeColor=#FFFF66;" parent="1" vertex="1">
          <mxGeometry x="595" y="140" width="70" height="30" as="geometry" />
        </mxCell>
        <mxCell id="5PLPJtpDU1oJyjAWQgFz-7" value="관리자" style="text;html=1;align=center;verticalAlign=middle;whiteSpace=wrap;rounded=0;strokeColor=#FF0000;" parent="1" vertex="1">
          <mxGeometry x="860" y="140" width="50" height="30" as="geometry" />
        </mxCell>
        <mxCell id="5PLPJtpDU1oJyjAWQgFz-9" value="객실대여서비스" style="text;html=1;align=center;verticalAlign=middle;whiteSpace=wrap;rounded=0;strokeColor=#6D1F00;fillColor=#a0522d;fontColor=#ffffff;fontStyle=1" parent="1" vertex="1">
          <mxGeometry x="60" y="1450" width="100" height="30" as="geometry" />
        </mxCell>
        <mxCell id="5PLPJtpDU1oJyjAWQgFz-10" value="인증 서비스(회원가입)" style="text;html=1;align=center;verticalAlign=middle;whiteSpace=wrap;rounded=0;strokeColor=#2D7600;fillColor=#60a917;fontColor=#ffffff;fontStyle=1" parent="1" vertex="1">
          <mxGeometry x="45" y="200" width="130" height="30" as="geometry" />
        </mxCell>
        <mxCell id="5PLPJtpDU1oJyjAWQgFz-24" style="edgeStyle=orthogonalEdgeStyle;rounded=0;orthogonalLoop=1;jettySize=auto;html=1;exitX=0.5;exitY=1;exitDx=0;exitDy=0;entryX=0.5;entryY=0;entryDx=0;entryDy=0;" parent="1" source="5PLPJtpDU1oJyjAWQgFz-11" edge="1">
          <mxGeometry relative="1" as="geometry">
            <mxPoint x="110" y="639.9999999999998" as="targetPoint" />
          </mxGeometry>
        </mxCell>
        <mxCell id="5PLPJtpDU1oJyjAWQgFz-11" value="객실 정보 등록 서비스" style="text;html=1;align=center;verticalAlign=middle;whiteSpace=wrap;rounded=0;strokeColor=#BD7000;fillColor=#f0a30a;fontColor=#FFFFFF;fontStyle=1" parent="1" vertex="1">
          <mxGeometry x="40" y="560" width="140" height="40" as="geometry" />
        </mxCell>
        <mxCell id="5PLPJtpDU1oJyjAWQgFz-12" value="객실대여서비스" style="text;html=1;align=center;verticalAlign=middle;whiteSpace=wrap;rounded=0;strokeColor=#6D1F00;fillColor=#a0522d;fontColor=#ffffff;fontStyle=1" parent="1" vertex="1">
          <mxGeometry x="320" y="1450" width="100" height="30" as="geometry" />
        </mxCell>
        <mxCell id="5PLPJtpDU1oJyjAWQgFz-13" value="인증 서비스(회원가입)" style="text;html=1;align=center;verticalAlign=middle;whiteSpace=wrap;rounded=0;strokeColor=#2D7600;fillColor=#60a917;fontColor=#ffffff;fontStyle=1" parent="1" vertex="1">
          <mxGeometry x="305" y="200" width="130" height="30" as="geometry" />
        </mxCell>
        <mxCell id="5PLPJtpDU1oJyjAWQgFz-15" value="객실대여서비스" style="text;html=1;align=center;verticalAlign=middle;whiteSpace=wrap;rounded=0;strokeColor=#6D1F00;fillColor=#a0522d;fontColor=#ffffff;fontStyle=1" parent="1" vertex="1">
          <mxGeometry x="580" y="1450" width="100" height="30" as="geometry" />
        </mxCell>
        <mxCell id="5PLPJtpDU1oJyjAWQgFz-16" value="인증 서비스(회원가입)" style="text;html=1;align=center;verticalAlign=middle;whiteSpace=wrap;rounded=0;strokeColor=#2D7600;fillColor=#60a917;fontColor=#ffffff;fontStyle=1" parent="1" vertex="1">
          <mxGeometry x="565" y="200" width="130" height="30" as="geometry" />
        </mxCell>
        <mxCell id="5PLPJtpDU1oJyjAWQgFz-20" value="객실대여서비스" style="text;html=1;align=center;verticalAlign=middle;whiteSpace=wrap;rounded=0;strokeColor=#6D1F00;fillColor=#a0522d;fontColor=#ffffff;fontStyle=1" parent="1" vertex="1">
          <mxGeometry x="835" y="1450" width="100" height="30" as="geometry" />
        </mxCell>
        <mxCell id="5PLPJtpDU1oJyjAWQgFz-21" value="인증 서비스(회원가입)" style="text;html=1;align=center;verticalAlign=middle;whiteSpace=wrap;rounded=0;strokeColor=#2D7600;fillColor=#60a917;fontColor=#ffffff;fontStyle=1" parent="1" vertex="1">
          <mxGeometry x="820" y="200" width="130" height="30" as="geometry" />
        </mxCell>
        <mxCell id="5PLPJtpDU1oJyjAWQgFz-25" value="회원가입 X(Create)&lt;br&gt;나의 정보 조회 가능(Read)&lt;br&gt;나의 정보 수정 가능(Update)&lt;br&gt;나의 정보 삭제 가능(Delete)&lt;br&gt;&lt;br&gt;로그인 &amp;amp; 로그아웃&lt;br&gt;(Process)&lt;br&gt;(사용자 확인 &amp;amp; 로그 기록 및 저장)" style="text;html=1;align=center;verticalAlign=middle;whiteSpace=wrap;rounded=0;strokeColor=default;" parent="1" vertex="1">
          <mxGeometry x="18.75" y="253" width="182.5" height="140" as="geometry" />
        </mxCell>
        <mxCell id="5PLPJtpDU1oJyjAWQgFz-26" value="&lt;div style=&quot;&quot;&gt;&lt;span style=&quot;background-color: transparent; color: light-dark(rgb(0, 0, 0), rgb(255, 255, 255));&quot;&gt;나의 내역 조회 O (Read)&lt;/span&gt;&lt;/div&gt;나의 대여 기간 내역 수정 O (Update) - 대여 연장 처리" style="text;html=1;align=left;verticalAlign=middle;whiteSpace=wrap;rounded=0;strokeColor=default;" parent="1" vertex="1">
          <mxGeometry x="30" y="1520" width="160" height="80" as="geometry" />
        </mxCell>
        <mxCell id="5PLPJtpDU1oJyjAWQgFz-30" value="회원가입 가능(Create)" style="text;html=1;align=center;verticalAlign=middle;whiteSpace=wrap;rounded=0;strokeColor=default;" parent="1" vertex="1">
          <mxGeometry x="547.5" y="269.5" width="165" height="107" as="geometry" />
        </mxCell>
        <mxCell id="5PLPJtpDU1oJyjAWQgFz-31" value="회원가입 X(Create)&lt;br&gt;나의 정보 조회 가능(Read)&lt;br&gt;나의 정보 수정 가능(Update)&lt;br&gt;나의 정보 삭제 가능(Delete)&lt;br&gt;&lt;br&gt;로그인 &amp;amp; 로그아웃&lt;br&gt;(Process)&lt;br&gt;(사용자 확인 &amp;amp; 로그 기록 및 저장)" style="text;html=1;align=center;verticalAlign=middle;whiteSpace=wrap;rounded=0;strokeColor=default;" parent="1" vertex="1">
          <mxGeometry x="278.75" y="253" width="182.5" height="140" as="geometry" />
        </mxCell>
        <mxCell id="5PLPJtpDU1oJyjAWQgFz-36" value="회원가입 X(Create)&lt;br&gt;나의 정보 조회 가능(Read)&lt;br&gt;나의 정보 수정 가능(Update)&lt;br&gt;나의 정보 삭제 가능(Delete)&lt;br&gt;&lt;br&gt;로그인 &amp;amp; 로그아웃&lt;br&gt;(Process)&lt;br&gt;(사용자 확인 &amp;amp; 로그 기록 및 저장)" style="text;html=1;align=center;verticalAlign=middle;whiteSpace=wrap;rounded=0;strokeColor=default;" parent="1" vertex="1">
          <mxGeometry x="793.75" y="253" width="182.5" height="140" as="geometry" />
        </mxCell>
        <mxCell id="_WWPGWpsmgN-KW0Gxb0J-21" style="edgeStyle=orthogonalEdgeStyle;rounded=0;orthogonalLoop=1;jettySize=auto;html=1;exitX=0.5;exitY=1;exitDx=0;exitDy=0;entryX=0.5;entryY=0;entryDx=0;entryDy=0;" edge="1" parent="1" source="5PLPJtpDU1oJyjAWQgFz-50" target="_WWPGWpsmgN-KW0Gxb0J-7">
          <mxGeometry relative="1" as="geometry" />
        </mxCell>
        <mxCell id="5PLPJtpDU1oJyjAWQgFz-50" value="&lt;div style=&quot;text-align: center;&quot;&gt;&lt;span style=&quot;background-color: transparent; color: light-dark(rgb(0, 0, 0), rgb(255, 255, 255));&quot;&gt;- 회원 -&lt;/span&gt;&lt;/div&gt;객실등록 X (Create)&lt;br&gt;객실조회 O (Read)&lt;br&gt;객실수정 X (Update)&lt;br&gt;객실삭제 X (Delete)" style="text;html=1;align=left;verticalAlign=middle;whiteSpace=wrap;rounded=0;strokeColor=default;" parent="1" vertex="1">
          <mxGeometry x="50" y="640" width="120" height="100" as="geometry" />
        </mxCell>
        <mxCell id="5PLPJtpDU1oJyjAWQgFz-53" value="&lt;div style=&quot;&quot;&gt;&lt;span style=&quot;background-color: transparent; color: light-dark(rgb(0, 0, 0), rgb(255, 255, 255));&quot;&gt;회원 대여 처리 O (Create)&lt;br&gt;회원 내역 조회 O (Read)&lt;/span&gt;&lt;/div&gt;회원 대여 연장 처리 O (Update)&lt;div&gt;회원 반납 완료 처리 O (Delete)&lt;br&gt;&lt;/div&gt;" style="text;html=1;align=left;verticalAlign=middle;whiteSpace=wrap;rounded=0;strokeColor=default;" parent="1" vertex="1">
          <mxGeometry x="278.75" y="1510" width="190" height="100" as="geometry" />
        </mxCell>
        <mxCell id="5PLPJtpDU1oJyjAWQgFz-54" value="&lt;div style=&quot;text-align: center;&quot;&gt;&lt;span style=&quot;background-color: transparent;&quot;&gt;- 비회원 -&lt;/span&gt;&lt;/div&gt;객실등록 X (Create)&lt;br&gt;객실조회 O (Read)&lt;br&gt;객실수정 X (Update)&lt;br&gt;객실삭제 X (Delete)" style="text;html=1;align=left;verticalAlign=middle;whiteSpace=wrap;rounded=0;strokeColor=default;fontColor=#FFFF66;" parent="1" vertex="1">
          <mxGeometry x="570" y="1510" width="120" height="100" as="geometry" />
        </mxCell>
        <mxCell id="_WWPGWpsmgN-KW0Gxb0J-12" style="edgeStyle=orthogonalEdgeStyle;rounded=0;orthogonalLoop=1;jettySize=auto;html=1;exitX=0.5;exitY=1;exitDx=0;exitDy=0;entryX=0.5;entryY=0;entryDx=0;entryDy=0;" edge="1" parent="1" source="_WWPGWpsmgN-KW0Gxb0J-5" target="5PLPJtpDU1oJyjAWQgFz-11">
          <mxGeometry relative="1" as="geometry" />
        </mxCell>
        <mxCell id="_WWPGWpsmgN-KW0Gxb0J-5" value="서비스" style="text;html=1;align=center;verticalAlign=middle;whiteSpace=wrap;rounded=0;strokeColor=#BD7000;fillColor=#f0a30a;fontColor=#FFFFFF;fontStyle=1;fontSize=17;" vertex="1" parent="1">
          <mxGeometry x="40" y="440" width="140" height="40" as="geometry" />
        </mxCell>
        <mxCell id="_WWPGWpsmgN-KW0Gxb0J-6" style="edgeStyle=orthogonalEdgeStyle;rounded=0;orthogonalLoop=1;jettySize=auto;html=1;exitX=0.5;exitY=1;exitDx=0;exitDy=0;entryX=0.5;entryY=0;entryDx=0;entryDy=0;" edge="1" parent="1" source="_WWPGWpsmgN-KW0Gxb0J-7">
          <mxGeometry relative="1" as="geometry">
            <mxPoint x="110" y="859.9999999999998" as="targetPoint" />
          </mxGeometry>
        </mxCell>
        <mxCell id="_WWPGWpsmgN-KW0Gxb0J-7" value="주차 서비스" style="text;html=1;align=center;verticalAlign=middle;whiteSpace=wrap;rounded=0;strokeColor=#BD7000;fillColor=#f0a30a;fontColor=#FFFFFF;fontStyle=1" vertex="1" parent="1">
          <mxGeometry x="40" y="780" width="140" height="40" as="geometry" />
        </mxCell>
        <mxCell id="_WWPGWpsmgN-KW0Gxb0J-22" style="edgeStyle=orthogonalEdgeStyle;rounded=0;orthogonalLoop=1;jettySize=auto;html=1;exitX=0.5;exitY=1;exitDx=0;exitDy=0;entryX=0.5;entryY=0;entryDx=0;entryDy=0;" edge="1" parent="1" source="_WWPGWpsmgN-KW0Gxb0J-8" target="_WWPGWpsmgN-KW0Gxb0J-17">
          <mxGeometry relative="1" as="geometry" />
        </mxCell>
        <mxCell id="_WWPGWpsmgN-KW0Gxb0J-8" value="&lt;div style=&quot;text-align: center;&quot;&gt;&lt;span style=&quot;background-color: transparent; color: light-dark(rgb(0, 0, 0), rgb(255, 255, 255));&quot;&gt;- 회원 -&lt;/span&gt;&lt;/div&gt;객실등록 X (Create)&lt;br&gt;객실조회 O (Read)&lt;br&gt;객실수정 X (Update)&lt;br&gt;객실삭제 X (Delete)" style="text;html=1;align=left;verticalAlign=middle;whiteSpace=wrap;rounded=0;strokeColor=default;" vertex="1" parent="1">
          <mxGeometry x="50" y="860" width="120" height="100" as="geometry" />
        </mxCell>
        <mxCell id="_WWPGWpsmgN-KW0Gxb0J-16" style="edgeStyle=orthogonalEdgeStyle;rounded=0;orthogonalLoop=1;jettySize=auto;html=1;exitX=0.5;exitY=1;exitDx=0;exitDy=0;entryX=0.5;entryY=0;entryDx=0;entryDy=0;" edge="1" parent="1" source="_WWPGWpsmgN-KW0Gxb0J-17">
          <mxGeometry relative="1" as="geometry">
            <mxPoint x="110" y="1079.9999999999998" as="targetPoint" />
          </mxGeometry>
        </mxCell>
        <mxCell id="_WWPGWpsmgN-KW0Gxb0J-17" value="식사 서비스" style="text;html=1;align=center;verticalAlign=middle;whiteSpace=wrap;rounded=0;strokeColor=#BD7000;fillColor=#f0a30a;fontColor=#FFFFFF;fontStyle=1" vertex="1" parent="1">
          <mxGeometry x="40" y="1000" width="140" height="40" as="geometry" />
        </mxCell>
        <mxCell id="_WWPGWpsmgN-KW0Gxb0J-26" style="edgeStyle=orthogonalEdgeStyle;rounded=0;orthogonalLoop=1;jettySize=auto;html=1;exitX=0.5;exitY=1;exitDx=0;exitDy=0;entryX=0.5;entryY=0;entryDx=0;entryDy=0;" edge="1" parent="1" source="_WWPGWpsmgN-KW0Gxb0J-18" target="_WWPGWpsmgN-KW0Gxb0J-24">
          <mxGeometry relative="1" as="geometry" />
        </mxCell>
        <mxCell id="_WWPGWpsmgN-KW0Gxb0J-18" value="&lt;div style=&quot;text-align: center;&quot;&gt;&lt;span style=&quot;background-color: transparent; color: light-dark(rgb(0, 0, 0), rgb(255, 255, 255));&quot;&gt;- 회원 -&lt;/span&gt;&lt;/div&gt;" style="text;html=1;align=left;verticalAlign=middle;whiteSpace=wrap;rounded=0;strokeColor=default;" vertex="1" parent="1">
          <mxGeometry x="50" y="1080" width="120" height="100" as="geometry" />
        </mxCell>
        <mxCell id="_WWPGWpsmgN-KW0Gxb0J-23" style="edgeStyle=orthogonalEdgeStyle;rounded=0;orthogonalLoop=1;jettySize=auto;html=1;exitX=0.5;exitY=1;exitDx=0;exitDy=0;entryX=0.5;entryY=0;entryDx=0;entryDy=0;" edge="1" parent="1" source="_WWPGWpsmgN-KW0Gxb0J-24">
          <mxGeometry relative="1" as="geometry">
            <mxPoint x="110" y="1299.9999999999998" as="targetPoint" />
          </mxGeometry>
        </mxCell>
        <mxCell id="_WWPGWpsmgN-KW0Gxb0J-24" value="추가 서비스" style="text;html=1;align=center;verticalAlign=middle;whiteSpace=wrap;rounded=0;strokeColor=#BD7000;fillColor=#f0a30a;fontColor=#FFFFFF;fontStyle=1" vertex="1" parent="1">
          <mxGeometry x="40" y="1220" width="140" height="40" as="geometry" />
        </mxCell>
        <mxCell id="_WWPGWpsmgN-KW0Gxb0J-25" value="&lt;div style=&quot;text-align: center;&quot;&gt;&lt;span style=&quot;background-color: transparent; color: light-dark(rgb(0, 0, 0), rgb(255, 255, 255));&quot;&gt;- 회원 -&lt;/span&gt;&lt;/div&gt;객실등록 X (Create)&lt;br&gt;객실조회 O (Read)&lt;br&gt;객실수정 X (Update)&lt;br&gt;객실삭제 X (Delete)" style="text;html=1;align=left;verticalAlign=middle;whiteSpace=wrap;rounded=0;strokeColor=default;" vertex="1" parent="1">
          <mxGeometry x="50" y="1300" width="120" height="100" as="geometry" />
        </mxCell>
      </root>
    </mxGraphModel>
  </diagram>
</mxfile>
